<svg xmlns="http://www.w3.org/2000/svg" viewBox="0 0 32 32" fill="none">
  <rect width="32" height="32" rx="7" fill="#F9F8F5"/>
  <path
    d="M22.5 8.5c-1.2-1.8-3.3-3-5.7-3-3.8 0-6.8 3-6.8 6.8 0 1.1.3 2.1.8 3L6.5 23.5c-.8 1.2-.2 2.8 1.2 3.1l3.1.7c1.1.2 2.2-.3 2.7-1.3l2.9-5.4c.8.2 1.6.3 2.5.3 3.8 0 6.8-3 6.8-6.8 0-2.1-1-4-2.5-5.2z"
    fill="#1A1A1A"
  />
  <circle cx="11.5" cy="13" r="1.35" fill="#3B82F6"/>
  <circle cx="14.5" cy="10.5" r="1.35" fill="#F97316"/>
  <circle cx="18" cy="12" r="1.35" fill="#22C55E"/>
  <circle cx="16.5" cy="15.5" r="1.35" fill="#EC4899"/>
  <circle cx="20.5" cy="15" r="1.8" fill="#F9F8F5" stroke="#1A1A1A" stroke-width="1.2"/>
</svg>
